<svg xmlns="http://www.w3.org/2000/svg" viewBox="0 0 37.35 47.83"><defs><style>.cls-1{fill:#fff;stroke:#fff;stroke-miterlimit:10;stroke-width:2.5px;}.cls-2{fill:#aa1f23;}</style></defs><title>Asset 1</title><g id="Layer_2" data-name="Layer 2"><g id="Layer_1-2" data-name="Layer 1"><path class="cls-1" d="M4.35,35.65c.33.51.67,1,1.05,1.51A28.09,28.09,0,0,0,17.1,46c.47.2,1.12.36,1.57.53.45-.16,1.07-.32,1.53-.51l.31-.11.84-.4a32,32,0,0,0,4.16-2.32l.15-.11c.36-.24.73-.49,1.08-.76A25.79,25.79,0,0,0,32,37.16a19.16,19.16,0,0,0,1.2-1.78l.37-.62,0-.11c.17-.3.32-.6.47-.91.07-.14.14-.29.2-.44s.24-.53.35-.8a21.34,21.34,0,0,0,1.51-8.2S36.08,9,36,3.59l-1-.27c-.58-.17-1.34-.34-2.21-.52A79.2,79.2,0,0,0,21.62,1.38h0S19.68,1.24,18,1.26h0A64.61,64.61,0,0,0,1.32,3.59C1.26,9,1.25,24.3,1.25,24.3A20.94,20.94,0,0,0,3.83,34.76S4.09,35.24,4.35,35.65Z"/><path d="M30.2,24.44l-.44-.14-.09-.46-.76-.3a27.43,27.43,0,0,0-6.32-1.49,6.16,6.16,0,0,0-3.89.66,6.16,6.16,0,0,0-3.89-.66,27.51,27.51,0,0,0-6.33,1.49l-.76.3-.09.46-.44.14L4.73,34.7c1.39-.25,4.24-.67,5.82-.83a38.42,38.42,0,0,1,5.87-.23c0,.09,0,.16,0,.25.26.25.77.23,1.19.26s.62,0,1,0,.62,0,1,0,.93,0,1.19-.26c.06-.09,0-.16,0-.25a38.42,38.42,0,0,1,5.87.23c1.58.16,4.43.58,5.82.83ZM18.4,32.16a7.56,7.56,0,0,0-4-.62A32,32,0,0,0,6,33.33l2.14-9.28a25.4,25.4,0,0,1,6.74-1.66,5.94,5.94,0,0,1,3.6.64Zm4.52-.62a7.56,7.56,0,0,0-4,.62L18.91,23a6,6,0,0,1,3.61-.64,25.33,25.33,0,0,1,6.73,1.66l2.1,9.28A31.85,31.85,0,0,0,22.92,31.54Z"/><path d="M19.34,1.28l2.44,4.9h0l.13.24.24-.09L26.24,4s-1.77,8.65-1.94,9.5l3.94-4.15,1.66,3.15.44-.07-.22,0L35,11.14l-1.54,5.44,0,.05h0l0,.06,0,0-.19.56c0,.07-.07.24-.09.29L35.6,18.8s-2.83,2.5-5.15,4.57c0,.1.05.23.05.26l.43.14,2.58,11A20.83,20.83,0,0,0,36.09,24.3S36.08,9,36,3.59A72.78,72.78,0,0,0,19.34,1.28"/><path d="M18.67,46.5c.46-.17,1.11-.33,1.57-.53A28.06,28.06,0,0,0,32,37.16c.37-.49.72-1,1-1.51l-.53-.1c-1.43-.26-4.28-.67-5.76-.83l-.48,0h-.1l-.47-.05h0l-.48,0h0l-.48,0h0c-1-.06-2-.08-3.12,0l0,0A2.33,2.33,0,0,1,20,35h-.25l-.25,0h-.84l-1.08,0-.26,0a2.26,2.26,0,0,1-1.49-.48l0,0c-.93,0-1.79,0-2.66,0l-.6,0h0l-.29,0h0l-.29,0h0l-.26,0h-.09l-.23,0h-.15l-.18,0-.34,0c-1.48.15-4.33.56-5.75.82l-.54.1c.33.51.67,1,1.05,1.51A28.09,28.09,0,0,0,17.1,46c.47.2,1.12.36,1.57.53"/><path d="M18,1.25A64.61,64.61,0,0,0,1.32,3.59C1.26,9,1.25,24.3,1.25,24.3A20.94,20.94,0,0,0,3.83,34.76l2.63-11,.43-.14a1.39,1.39,0,0,1,.05-.23l-5.2-4.6,2.48-1.28c0-.05-.07-.23-.1-.33S4,16.87,4,16.77v0l-1.59-5.6,4.84,1.33-.21,0,.43.07c.32-.59,1.66-3.15,1.66-3.15L13,13.51c-.17-.85-1.93-9.5-1.93-9.5s4,2.26,4.08,2.33l.24.09.13-.23v0l2.17-4.36L18,1.25"/><path class="cls-2" d="M5.31,17.69a1.07,1.07,0,0,1-.4.65L3.58,19l4.31,3.82.29-.11h0a28.07,28.07,0,0,1,6.54-1.54,7.29,7.29,0,0,1,4,.54,7.28,7.28,0,0,1,4-.54,27.81,27.81,0,0,1,6.52,1.54h0l.26.1L33.77,19l-1.33-.69a1.1,1.1,0,0,1-.4-.65c0-.08,0-.07,0-.05v0a2.15,2.15,0,0,1,.14-.53s.25-.78.26-.79l1-3.65-3.06.84c-.17,0-.32.07-.49.09s-.51.08-.68-.11L28,11.14l-3.49,3.67-.28.27c-.58.45-1.41,0-1.05-1.3l1.57-7.72L22.61,7.28a9.48,9.48,0,0,1-.93.34.38.38,0,0,1-.35-.12c-.15-.25-.41-.68-.5-.87L18.67,2.29,16.51,6.63a9,9,0,0,1-.49.86.37.37,0,0,1-.35.13,8.86,8.86,0,0,1-.94-.34L12.59,6.06l1.57,7.72c.37,1.27-.46,1.75-1.05,1.3l-.28-.27L9.35,11.14,8.12,13.47c-.17.19-.4.15-.69.11s-.31-.08-.48-.09l-3.06-.84,1,3.65s.27.8.26.79a1.9,1.9,0,0,1,.13.53v0S5.31,17.62,5.31,17.69Zm16-10.23c-.09-.09-.12-.16,0,0Zm-5.25,0c.11-.16.09-.09,0,0Z"/><path d="M17.22,25.3a7.05,7.05,0,0,0-3.92-.14,22.66,22.66,0,0,0-3.91,1l.1-.42a22.17,22.17,0,0,1,5-1.15,6.22,6.22,0,0,1,2.77.29v.4Z"/><path d="M17.22,27.15A7.05,7.05,0,0,0,13.3,27,25.79,25.79,0,0,0,9,28l.09-.42a32.51,32.51,0,0,1,5.4-1.14,6.22,6.22,0,0,1,2.77.29v.4Z"/><path d="M17.22,29a7.05,7.05,0,0,0-3.92-.14,32.88,32.88,0,0,0-4.82,1.26l.09-.42a31.91,31.91,0,0,1,5.88-1.39,6.22,6.22,0,0,1,2.77.29V29Z"/><path d="M20.08,25.3A7.05,7.05,0,0,1,24,25.16a22.43,22.43,0,0,1,3.91,1l-.09-.42a22.18,22.18,0,0,0-5-1.15,6.22,6.22,0,0,0-2.77.29v.4Z"/><path d="M20.08,27.15A7.05,7.05,0,0,1,24,27a25.89,25.89,0,0,1,4.35,1l-.1-.42a32.51,32.51,0,0,0-5.4-1.14,6.22,6.22,0,0,0-2.77.29v.4Z"/><path d="M20.08,29A7.05,7.05,0,0,1,24,28.88a32.56,32.56,0,0,1,4.82,1.26l-.09-.42a31.66,31.66,0,0,0-5.88-1.39,6.22,6.22,0,0,0-2.77.29V29Z"/></g></g></svg>