<svg id="Layer_1" data-name="Layer 1" xmlns="http://www.w3.org/2000/svg" viewBox="0 0 37.35 47.83"><defs><style>.cls-1{fill:#fff;stroke:#fff;stroke-miterlimit:10;stroke-width:2.5px;}.cls-2{fill:#aa1f23;}</style></defs><title>cu_mini</title><path class="cls-1" d="M4.53,36.26c.32.52.67,1,1,1.52a28.19,28.19,0,0,0,11.71,8.81c.46.19,1.11.36,1.57.52.44-.16,1.07-.32,1.53-.51l.3-.1.84-.41a28.68,28.68,0,0,0,4.16-2.32l.15-.1c.37-.25.73-.5,1.09-.77a25.78,25.78,0,0,0,5.21-5.13c.44-.59.83-1.18,1.19-1.77l.37-.63.06-.11c.16-.3.32-.6.46-.9l.21-.45c.12-.26.24-.53.34-.8a21.34,21.34,0,0,0,1.51-8.2s0-15.31-.06-20.7l-1.05-.28c-.58-.17-1.34-.34-2.21-.51A77.46,77.46,0,0,0,21.8,2h0s-1.93-.14-3.59-.12h0A64.7,64.7,0,0,0,1.49,4.21c-.05,5.38-.06,20.7-.06,20.7A20.83,20.83,0,0,0,4,35.37S4.27,35.86,4.53,36.26Z" transform="translate(-0.17 -0.61)"/><path d="M30.37,25.05l-.43-.14-.1-.46-.75-.29a27,27,0,0,0-6.33-1.5,6.11,6.11,0,0,0-3.89.67A6.07,6.07,0,0,0,15,22.66a27.22,27.22,0,0,0-6.34,1.5l-.75.29-.1.46-.44.14L4.91,35.32c1.38-.26,4.24-.67,5.82-.84a38.29,38.29,0,0,1,5.86-.23.39.39,0,0,0,0,.26c.26.24.78.22,1.19.26l1.05,0c.42,0,.61,0,1,0s.94,0,1.2-.26a.39.39,0,0,0,0-.26,38.24,38.24,0,0,1,5.86.23c1.58.17,4.43.58,5.82.84Zm-11.8,7.73a7.47,7.47,0,0,0-4-.63A31.87,31.87,0,0,0,6.18,34l2.14-9.28A24.87,24.87,0,0,1,15.05,23a5.85,5.85,0,0,1,3.6.65Zm4.52-.63a7.5,7.5,0,0,0-4,.63l0-9.13a5.87,5.87,0,0,1,3.6-.65,24.87,24.87,0,0,1,6.73,1.67L31.52,34A31.87,31.87,0,0,0,23.09,32.15Z" transform="translate(-0.17 -0.61)"/><path d="M19.51,1.89,22,6.79v0l.13.23L22.33,7l4.08-2.32-1.93,9.49L28.42,10l1.66,3.16.43-.08-.21,0,4.84-1.33L33.6,17.2l0,0h0l0,.07v0l-.18.55a2.33,2.33,0,0,0-.09.29l2.48,1.28L30.62,24a2.12,2.12,0,0,0,.06.26c.06,0,.42.14.42.14l2.59,11a20.94,20.94,0,0,0,2.58-10.46s0-15.32-.07-20.71A73.25,73.25,0,0,0,19.51,1.89" transform="translate(-0.17 -0.61)"/><path d="M18.85,47.11c.45-.16,1.1-.33,1.57-.52a28.19,28.19,0,0,0,11.71-8.81c.37-.5.71-1,1-1.52l-.54-.1c-1.42-.26-4.27-.67-5.75-.82l-.48-.05h-.1l-.47-.05h0l-.47,0h0l-.48,0h0c-1-.07-2-.08-3.12-.06l0,0a2.26,2.26,0,0,1-1.49.48l-.25,0h-.25l-.85,0-1.07,0-.26,0a2.27,2.27,0,0,1-1.5-.48l0,0c-.94,0-1.79,0-2.66,0l-.6,0h0l-.3,0h0l-.29,0h0l-.27,0h-.08l-.24,0-.15,0h-.18l-.33,0c-1.48.15-4.33.56-5.76.82l-.53.1c.32.52.67,1,1,1.52a28.19,28.19,0,0,0,11.71,8.81c.46.19,1.11.36,1.57.52" transform="translate(-0.17 -0.61)"/><path d="M18.2,1.86A64.7,64.7,0,0,0,1.49,4.21c-.05,5.38-.06,20.7-.06,20.7A20.83,20.83,0,0,0,4,35.37l2.64-11,.42-.14s0-.13.05-.23l-5.19-4.6L4.4,18.13s-.08-.23-.11-.32-.1-.32-.14-.43v0l-1.59-5.6L7.4,13.09l-.21,0,.43.07L9.28,10s3.15,3.33,3.94,4.15c-.18-.85-1.94-9.49-1.94-9.49L15.37,7l.24.1.13-.24v0l2.17-4.35.29-.58" transform="translate(-0.17 -0.61)"/><path class="cls-2" d="M5.48,18.3a1.07,1.07,0,0,1-.4.65l-1.33.69,4.32,3.82.28-.11h0A28,28,0,0,1,14.9,21.8a7.37,7.37,0,0,1,4,.54,7.39,7.39,0,0,1,4-.54,27.88,27.88,0,0,1,6.53,1.54h0l.26.1,4.3-3.81L32.61,19a1.07,1.07,0,0,1-.4-.65c0-.08,0-.07,0-.05v0a1.9,1.9,0,0,1,.13-.53s.26-.78.26-.79l1-3.65-3.06.84c-.16,0-.32.07-.48.09s-.52.08-.69-.11l-1.23-2.33-3.48,3.67-.28.28c-.59.44-1.42,0-1.06-1.31l1.58-7.72L22.79,7.89a8.86,8.86,0,0,1-.94.34.36.36,0,0,1-.35-.12c-.15-.25-.41-.68-.5-.87L18.85,2.9,16.69,7.24c-.09.19-.35.62-.5.87a.36.36,0,0,1-.35.12,9.48,9.48,0,0,1-.93-.34L12.77,6.67l1.57,7.72c.36,1.27-.47,1.75-1.05,1.31L13,15.42,9.52,11.75,8.3,14.08c-.18.19-.41.15-.69.11s-.32-.08-.49-.09l-3-.84,1,3.65s.27.8.26.79a2.15,2.15,0,0,1,.14.53v0S5.49,18.23,5.48,18.3Zm16-10.22c-.09-.1-.11-.16,0,0Zm-5.24,0c.11-.15.08-.09,0,0Z" transform="translate(-0.17 -0.61)"/><path d="M17.4,25.91a7.18,7.18,0,0,0-3.93-.13,20.69,20.69,0,0,0-3.9,1l.09-.42a22.49,22.49,0,0,1,5-1.16,6.29,6.29,0,0,1,2.77.3v.39Z" transform="translate(-0.17 -0.61)"/><path d="M17.4,27.76a7.09,7.09,0,0,0-3.93-.14,27,27,0,0,0-4.34,1l.1-.42a32.22,32.22,0,0,1,5.4-1.14,6.22,6.22,0,0,1,2.77.29v.4Z" transform="translate(-0.17 -0.61)"/><path d="M17.4,29.63a7.09,7.09,0,0,0-3.93-.14,34.2,34.2,0,0,0-4.82,1.26l.1-.42a31.66,31.66,0,0,1,5.88-1.39,6.22,6.22,0,0,1,2.77.29v.4Z" transform="translate(-0.17 -0.61)"/><path d="M20.25,25.91a7.18,7.18,0,0,1,3.93-.13,21,21,0,0,1,3.91,1l-.1-.42a22.49,22.49,0,0,0-5-1.16,6.33,6.33,0,0,0-2.78.3v.39Z" transform="translate(-0.17 -0.61)"/><path d="M20.25,27.76a7.09,7.09,0,0,1,3.93-.14,27,27,0,0,1,4.34,1l-.09-.42A32.51,32.51,0,0,0,23,27.07a6.26,6.26,0,0,0-2.78.29v.4Z" transform="translate(-0.17 -0.61)"/><path d="M20.25,29.63a7.09,7.09,0,0,1,3.93-.14A34.2,34.2,0,0,1,29,30.75l-.1-.42A31.69,31.69,0,0,0,23,28.94a6.26,6.26,0,0,0-2.78.29v.4Z" transform="translate(-0.17 -0.61)"/></svg>